<?xml version="1.0" encoding="UTF-8" standalone="no"?>
<!DOCTYPE svg PUBLIC "-//W3C//DTD SVG 1.1//EN"
 "http://www.w3.org/Graphics/SVG/1.1/DTD/svg11.dtd">
<!-- Generated by graphviz version 2.50.0 (0)
 -->
<!-- Pages: 1 -->
<svg width="1148pt" height="332pt"
 viewBox="0.00 0.00 1148.29 332.00" xmlns="http://www.w3.org/2000/svg" xmlns:xlink="http://www.w3.org/1999/xlink">
<g id="graph0" class="graph" transform="scale(1 1) rotate(0) translate(4 328)">
<polygon fill="white" stroke="transparent" points="-4,4 -4,-328 1144.29,-328 1144.29,4 -4,4"/>
<!-- [root] aws_instance.ec2_t2micro_example (expand) -->
<g id="node1" class="node">
<title>[root] aws_instance.ec2_t2micro_example (expand)</title>
<polygon fill="none" stroke="black" points="393,-180 179,-180 179,-144 393,-144 393,-180"/>
<text text-anchor="middle" x="286" y="-158.3" font-family="Times,serif" font-size="14.00">aws_instance.ec2_t2micro_example</text>
</g>
<!-- [root] aws_key_pair.ssh_key (expand) -->
<g id="node2" class="node">
<title>[root] aws_key_pair.ssh_key (expand)</title>
<polygon fill="none" stroke="black" points="138,-108 0,-108 0,-72 138,-72 138,-108"/>
<text text-anchor="middle" x="69" y="-86.3" font-family="Times,serif" font-size="14.00">aws_key_pair.ssh_key</text>
</g>
<!-- [root] aws_instance.ec2_t2micro_example (expand)&#45;&gt;[root] aws_key_pair.ssh_key (expand) -->
<g id="edge1" class="edge">
<title>[root] aws_instance.ec2_t2micro_example (expand)&#45;&gt;[root] aws_key_pair.ssh_key (expand)</title>
<path fill="none" stroke="black" d="M233.19,-143.97C202.61,-134.1 163.93,-121.62 131.79,-111.25"/>
<polygon fill="black" stroke="black" points="132.64,-107.85 122.04,-108.11 130.49,-114.51 132.64,-107.85"/>
</g>
<!-- [root] var.enable_public_ip -->
<g id="node5" class="node">
<title>[root] var.enable_public_ip</title>
<polygon fill="none" stroke="black" points="280,-108 156,-108 156,-72 286,-72 286,-102 280,-108"/>
<polyline fill="none" stroke="black" points="280,-108 280,-102 "/>
<polyline fill="none" stroke="black" points="286,-102 280,-102 "/>
<text text-anchor="middle" x="221" y="-86.3" font-family="Times,serif" font-size="14.00">var.enable_public_ip</text>
</g>
<!-- [root] aws_instance.ec2_t2micro_example (expand)&#45;&gt;[root] var.enable_public_ip -->
<g id="edge2" class="edge">
<title>[root] aws_instance.ec2_t2micro_example (expand)&#45;&gt;[root] var.enable_public_ip</title>
<path fill="none" stroke="black" d="M269.93,-143.7C262.06,-135.22 252.44,-124.86 243.83,-115.58"/>
<polygon fill="black" stroke="black" points="246.25,-113.05 236.88,-108.1 241.12,-117.81 246.25,-113.05"/>
</g>
<!-- [root] var.instance_count -->
<g id="node6" class="node">
<title>[root] var.instance_count</title>
<polygon fill="none" stroke="black" points="416,-108 304,-108 304,-72 422,-72 422,-102 416,-108"/>
<polyline fill="none" stroke="black" points="416,-108 416,-102 "/>
<polyline fill="none" stroke="black" points="422,-102 416,-102 "/>
<text text-anchor="middle" x="363" y="-86.3" font-family="Times,serif" font-size="14.00">var.instance_count</text>
</g>
<!-- [root] aws_instance.ec2_t2micro_example (expand)&#45;&gt;[root] var.instance_count -->
<g id="edge3" class="edge">
<title>[root] aws_instance.ec2_t2micro_example (expand)&#45;&gt;[root] var.instance_count</title>
<path fill="none" stroke="black" d="M305.03,-143.7C314.54,-135.05 326.21,-124.45 336.57,-115.03"/>
<polygon fill="black" stroke="black" points="339.14,-117.42 344.19,-108.1 334.43,-112.24 339.14,-117.42"/>
</g>
<!-- [root] var.instance_type -->
<g id="node7" class="node">
<title>[root] var.instance_type</title>
<polygon fill="none" stroke="black" points="545.5,-108 440.5,-108 440.5,-72 551.5,-72 551.5,-102 545.5,-108"/>
<polyline fill="none" stroke="black" points="545.5,-108 545.5,-102 "/>
<polyline fill="none" stroke="black" points="551.5,-102 545.5,-102 "/>
<text text-anchor="middle" x="496" y="-86.3" font-family="Times,serif" font-size="14.00">var.instance_type</text>
</g>
<!-- [root] aws_instance.ec2_t2micro_example (expand)&#45;&gt;[root] var.instance_type -->
<g id="edge4" class="edge">
<title>[root] aws_instance.ec2_t2micro_example (expand)&#45;&gt;[root] var.instance_type</title>
<path fill="none" stroke="black" d="M337.1,-143.97C366.57,-134.14 403.81,-121.73 434.83,-111.39"/>
<polygon fill="black" stroke="black" points="436.29,-114.59 444.67,-108.11 434.07,-107.95 436.29,-114.59"/>
</g>
<!-- [root] provider[&quot;registry.terraform.io/hashicorp/aws&quot;] -->
<g id="node4" class="node">
<title>[root] provider[&quot;registry.terraform.io/hashicorp/aws&quot;]</title>
<polygon fill="none" stroke="black" points="324,-36 71.46,-18 324,0 576.54,-18 324,-36"/>
<text text-anchor="middle" x="324" y="-14.3" font-family="Times,serif" font-size="14.00">provider[&quot;registry.terraform.io/hashicorp/aws&quot;]</text>
</g>
<!-- [root] aws_key_pair.ssh_key (expand)&#45;&gt;[root] provider[&quot;registry.terraform.io/hashicorp/aws&quot;] -->
<g id="edge5" class="edge">
<title>[root] aws_key_pair.ssh_key (expand)&#45;&gt;[root] provider[&quot;registry.terraform.io/hashicorp/aws&quot;]</title>
<path fill="none" stroke="black" d="M131.05,-71.97C171.78,-60.79 224.72,-46.25 264.84,-35.24"/>
<polygon fill="black" stroke="black" points="265.77,-38.61 274.49,-32.59 263.92,-31.86 265.77,-38.61"/>
</g>
<!-- [root] aws_security_group.ec2_sg_traffic (expand) -->
<g id="node3" class="node">
<title>[root] aws_security_group.ec2_sg_traffic (expand)</title>
<polygon fill="none" stroke="black" points="683,-180 477,-180 477,-144 683,-144 683,-180"/>
<text text-anchor="middle" x="580" y="-158.3" font-family="Times,serif" font-size="14.00">aws_security_group.ec2_sg_traffic</text>
</g>
<!-- [root] aws_security_group.ec2_sg_traffic (expand)&#45;&gt;[root] provider[&quot;registry.terraform.io/hashicorp/aws&quot;] -->
<g id="edge6" class="edge">
<title>[root] aws_security_group.ec2_sg_traffic (expand)&#45;&gt;[root] provider[&quot;registry.terraform.io/hashicorp/aws&quot;]</title>
<path fill="none" stroke="black" d="M581.42,-143.72C582.05,-123.68 579.79,-90.97 561,-72 541.87,-52.68 481.86,-39.38 427.02,-30.93"/>
<polygon fill="black" stroke="black" points="427.26,-27.43 416.85,-29.41 426.22,-34.35 427.26,-27.43"/>
</g>
<!-- [root] output.instance_public_ip (expand) -->
<g id="node8" class="node">
<title>[root] output.instance_public_ip (expand)</title>
<ellipse fill="none" stroke="black" cx="177" cy="-234" rx="157.87" ry="18"/>
<text text-anchor="middle" x="177" y="-230.3" font-family="Times,serif" font-size="14.00">[root] output.instance_public_ip (expand)</text>
</g>
<!-- [root] output.instance_public_ip (expand)&#45;&gt;[root] aws_instance.ec2_t2micro_example (expand) -->
<g id="edge7" class="edge">
<title>[root] output.instance_public_ip (expand)&#45;&gt;[root] aws_instance.ec2_t2micro_example (expand)</title>
<path fill="none" stroke="black" d="M203.11,-216.23C217.32,-207.1 235.11,-195.68 250.57,-185.76"/>
<polygon fill="black" stroke="black" points="252.82,-188.46 259.35,-180.12 249.04,-182.57 252.82,-188.46"/>
</g>
<!-- [root] provider[&quot;registry.terraform.io/hashicorp/aws&quot;] (close) -->
<g id="node9" class="node">
<title>[root] provider[&quot;registry.terraform.io/hashicorp/aws&quot;] (close)</title>
<ellipse fill="none" stroke="black" cx="580" cy="-234" rx="227.46" ry="18"/>
<text text-anchor="middle" x="580" y="-230.3" font-family="Times,serif" font-size="14.00">[root] provider[&quot;registry.terraform.io/hashicorp/aws&quot;] (close)</text>
</g>
<!-- [root] provider[&quot;registry.terraform.io/hashicorp/aws&quot;] (close)&#45;&gt;[root] aws_instance.ec2_t2micro_example (expand) -->
<g id="edge8" class="edge">
<title>[root] provider[&quot;registry.terraform.io/hashicorp/aws&quot;] (close)&#45;&gt;[root] aws_instance.ec2_t2micro_example (expand)</title>
<path fill="none" stroke="black" d="M511.81,-216.76C468.67,-206.49 412.67,-193.16 367.23,-182.34"/>
<polygon fill="black" stroke="black" points="367.94,-178.91 357.4,-180 366.32,-185.72 367.94,-178.91"/>
</g>
<!-- [root] provider[&quot;registry.terraform.io/hashicorp/aws&quot;] (close)&#45;&gt;[root] aws_security_group.ec2_sg_traffic (expand) -->
<g id="edge9" class="edge">
<title>[root] provider[&quot;registry.terraform.io/hashicorp/aws&quot;] (close)&#45;&gt;[root] aws_security_group.ec2_sg_traffic (expand)</title>
<path fill="none" stroke="black" d="M580,-215.7C580,-207.98 580,-198.71 580,-190.11"/>
<polygon fill="black" stroke="black" points="583.5,-190.1 580,-180.1 576.5,-190.1 583.5,-190.1"/>
</g>
<!-- [root] root -->
<g id="node10" class="node">
<title>[root] root</title>
<ellipse fill="none" stroke="black" cx="580" cy="-306" rx="47.39" ry="18"/>
<text text-anchor="middle" x="580" y="-302.3" font-family="Times,serif" font-size="14.00">[root] root</text>
</g>
<!-- [root] root&#45;&gt;[root] output.instance_public_ip (expand) -->
<g id="edge11" class="edge">
<title>[root] root&#45;&gt;[root] output.instance_public_ip (expand)</title>
<path fill="none" stroke="black" d="M537.63,-297.64C474.52,-286.68 354.22,-265.78 269.98,-251.15"/>
<polygon fill="black" stroke="black" points="270.35,-247.66 259.9,-249.4 269.15,-254.56 270.35,-247.66"/>
</g>
<!-- [root] root&#45;&gt;[root] provider[&quot;registry.terraform.io/hashicorp/aws&quot;] (close) -->
<g id="edge12" class="edge">
<title>[root] root&#45;&gt;[root] provider[&quot;registry.terraform.io/hashicorp/aws&quot;] (close)</title>
<path fill="none" stroke="black" d="M580,-287.7C580,-279.98 580,-270.71 580,-262.11"/>
<polygon fill="black" stroke="black" points="583.5,-262.1 580,-252.1 576.5,-262.1 583.5,-262.1"/>
</g>
<!-- [root] output.ec2&#45;connect&#45;usage (expand) -->
<g id="node11" class="node">
<title>[root] output.ec2&#45;connect&#45;usage (expand)</title>
<ellipse fill="none" stroke="black" cx="983" cy="-234" rx="157.07" ry="18"/>
<text text-anchor="middle" x="983" y="-230.3" font-family="Times,serif" font-size="14.00">[root] output.ec2&#45;connect&#45;usage (expand)</text>
</g>
<!-- [root] root&#45;&gt;[root] output.ec2&#45;connect&#45;usage (expand) -->
<g id="edge10" class="edge">
<title>[root] root&#45;&gt;[root] output.ec2&#45;connect&#45;usage (expand)</title>
<path fill="none" stroke="black" d="M622.37,-297.64C685.58,-286.66 806.15,-265.72 890.4,-251.08"/>
<polygon fill="black" stroke="black" points="891.24,-254.49 900.49,-249.33 890.04,-247.59 891.24,-254.49"/>
</g>
</g>
</svg>
